<svg width="20" height="18" viewBox="0 0 20 18" fill="none" xmlns="http://www.w3.org/2000/svg">
<path d="M19.9993 17.9993H9.09493C4.1307 17.9993 0.0284637 14.0184 0.000151235 9.05221C-0.0285023 4.06559 4.01813 0 8.99635 0H19.9997V5.81994H9.54247C7.80654 5.81994 6.34623 7.18731 6.30496 8.92322C6.26266 10.7117 7.70455 12.1797 9.48278 12.1797H16.0148V14.1023H9.56021C6.76103 14.1023 4.42576 11.8787 4.38312 9.07917C4.3398 6.22943 6.64437 3.89736 9.48312 3.89736H18.0782V1.92292H9.08674C5.19225 1.92292 1.96053 5.03371 1.92267 8.93005C1.88446 12.8643 5.07252 16.0771 8.99669 16.0771H18.0782V11.9709C18.0782 10.8608 17.179 9.96129 16.0693 9.96129H9.57181C9.04103 9.96129 8.61089 9.53098 8.61089 9.00034C8.61089 8.46936 9.04103 8.03905 9.57181 8.03905H16.0693C18.2402 8.03905 20 9.79988 20 11.9712V18L19.9993 17.9993Z" fill="#06E5A0"/>
</svg>
